<svg xmlns="http://www.w3.org/2000/svg" xml:space="preserve" width="1500" height="1500" data-id="lg_VEBciJEKqBjRBDEIDP" data-version="1" viewBox="0 0 1500 1500"><path stroke="transparent" d="M0 0h1500v1500H0z"/><g data-padding="20"><path fill="#393939" fill-rule="evenodd" d="M857.459 954.172h32.237c17.805 0 32.238-14.433 32.238-32.238V857.46c0-29.674-24.056-53.73-53.73-53.73H857.46v-75.22a10.746 10.746 0 0 0-10.746-10.747H631.795a10.746 10.746 0 0 0-10.746 10.746v75.221h-10.745c-29.674 0-53.73 24.056-53.73 53.73v64.475c0 17.805 14.433 32.238 32.238 32.238h32.237v53.73a10.746 10.746 0 0 0 10.746 10.745h214.918a10.746 10.746 0 0 0 10.746-10.746Zm-236.41-21.492h-32.237a10.746 10.746 0 0 1-10.746-10.746V857.46c0-17.805 14.433-32.238 32.238-32.238h257.9c17.805 0 32.238 14.433 32.238 32.238v64.475a10.746 10.746 0 0 1-10.746 10.746H857.46v-21.492c0-11.87-9.622-21.492-21.492-21.492H642.541c-11.87 0-21.492 9.622-21.492 21.492Zm21.492-21.492h193.426v85.967H642.541ZM835.967 803.73v-64.475H642.541v64.475Zm26.865 75.222c8.901 0 16.119-7.218 16.119-16.12s-7.218-16.118-16.12-16.118-16.118 7.217-16.118 16.119 7.217 16.119 16.119 16.119M829.52 266.435H427.624c-23.74 0-42.984 19.245-42.984 42.984v881.162c0 23.74 19.245 42.984 42.984 42.984h644.752c23.74 0 42.984-19.245 42.984-42.984v-644.43c0-11.821-6.77-28.262-15.15-36.643L872.393 281.695a59.1 59.1 0 0 0-36.857-15.26Zm51.58 257.901c-13.015 0-23.582-10.518-23.641-23.533V308.344c0-5.91 3.331-7.306 7.522-3.116l211.694 211.694c4.298 4.298 2.794 7.522-3.009 7.522ZM429.773 287.927c-13.058 0-23.641 10.585-23.641 23.641v876.864c0 13.11 10.638 23.641 23.64 23.641h640.455a23.64 23.64 0 0 0 23.641-23.641V556.359a10.746 10.746 0 0 0-10.746-10.746H878.951c-23.74 0-42.984-19.244-42.984-42.984V298.566a10.746 10.746 0 0 0-10.746-10.639Z"/><path fill="#363636" stroke="#3e3e3e" stroke-width="26.508" d="M687.42 470.352a4.08 4.08 0 0 0-3.63-2.284h-84.58l38.579-144.57a3.997 3.997 0 0 0-6.933-3.547L461.248 529.402a3.997 3.997 0 0 0 3.1 6.525h84.58l-38.58 144.57a3.997 3.997 0 0 0 6.933 3.548L686.85 474.593c.979-1.223 1.183-2.856.53-4.241" paint-order="stroke"/><path fill="transparent" stroke="transparent" stroke-width="1.252" d="M372.028 250h755.944v1000H372.028z"/></g></svg>