<svg xmlns="http://www.w3.org/2000/svg" xml:space="preserve" width="1500" height="799" data-id="lg_VEBciJEKqBjRBDEIDP" data-version="1" viewBox="0 0 1500 799"><g data-padding="20"><path fill="#c6c6c6" fill-rule="evenodd" d="M835.86 562.633h25.757c14.226 0 25.758-11.532 25.758-25.758V485.36c0-23.71-19.22-42.93-42.93-42.93h-8.585v-60.102a8.586 8.586 0 0 0-8.586-8.586h-171.72a8.586 8.586 0 0 0-8.586 8.586v60.102h-8.585c-23.71 0-42.93 19.22-42.93 42.93v51.515c0 14.226 11.532 25.758 25.758 25.758h25.757v42.93a8.586 8.586 0 0 0 8.586 8.586h171.72a8.586 8.586 0 0 0 8.586-8.586Zm-188.892-17.172h-25.757a8.586 8.586 0 0 1-8.586-8.586V485.36c0-14.226 11.532-25.758 25.758-25.758h206.063c14.225 0 25.757 11.532 25.757 25.758v51.515a8.586 8.586 0 0 1-8.586 8.586H835.86V528.29c0-9.484-7.688-17.172-17.172-17.172H664.14c-9.484 0-17.172 7.688-17.172 17.172Zm17.172-17.172h154.548v68.688H664.14Zm154.548-85.86v-51.515H664.14v51.516Zm21.465 60.103c7.112 0 12.879-5.767 12.879-12.88s-5.767-12.878-12.88-12.878-12.878 5.766-12.878 12.879 5.766 12.879 12.879 12.879m-26.617-489.4H492.421c-18.967 0-34.344 15.376-34.344 34.344v704.048c0 18.968 15.377 34.344 34.344 34.344h515.158c18.967 0 34.344-15.376 34.344-34.344v-514.9c0-9.445-5.41-22.58-12.106-29.277L847.793 25.324a47.22 47.22 0 0 0-29.449-12.192Zm41.213 206.063c-10.4 0-18.842-8.404-18.89-18.803V46.617c0-4.722 2.662-5.838 6.01-2.49l169.144 169.144c3.435 3.434 2.233 6.01-2.403 6.01ZM494.139 30.304c-10.433 0-18.89 8.457-18.89 18.889v700.614c0 10.475 8.5 18.89 18.89 18.89h511.723a18.89 18.89 0 0 0 18.889-18.89V244.781a8.586 8.586 0 0 0-8.586-8.586H853.032c-18.968 0-34.344-15.376-34.344-34.344V38.805a8.586 8.586 0 0 0-8.586-8.501Z"/><path fill="#ffcd00" stroke="#ffbb47" stroke-width="21.18" d="M699.998 176.061a3.26 3.26 0 0 0-2.9-1.824h-67.579l30.824-115.512a3.194 3.194 0 0 0-5.539-2.835L519.287 223.242a3.194 3.194 0 0 0 2.476 5.214h67.58l-30.824 115.51a3.194 3.194 0 0 0 5.539 2.836L699.542 179.45c.782-.978.946-2.282.424-3.389" paint-order="stroke"/><path fill="transparent" stroke="transparent" d="M448 0h604v799H448z"/></g></svg>